<?xml version="1.0" encoding="UTF-8" standalone="no"?>
<svg width="37px" height="38px" viewBox="0 0 37 38" version="1.1" xmlns="http://www.w3.org/2000/svg" xmlns:xlink="http://www.w3.org/1999/xlink">
    <!-- Generator: Sketch 3.7.2 (28276) - http://www.bohemiancoding.com/sketch -->
    <title>Instagram</title>
    <desc>Created with Sketch.</desc>
    <defs></defs>
    <g id="Page-1" stroke="none" stroke-width="1" fill="none" fill-rule="evenodd">
        <g id="SOCIAL-ICONS-SKETCH" transform="translate(-932.000000, -747.000000)" fill="#2e2e2e">
            <g id="SINGLE-WHITE" transform="translate(0.000000, 568.000000)">
                <path d="M964.456,179.478 L936.509,179.478 C934.102,179.478 932.151,181.425 932.151,183.826 L932.151,211.793 C932.151,214.195 934.102,216.141 936.509,216.141 L964.456,216.141 C966.863,216.141 968.814,214.195 968.814,211.793 L968.814,183.826 C968.814,181.425 966.863,179.478 964.456,179.478 L964.456,179.478 Z M958.503,185.207 C958.503,184.574 959.016,184.061 959.648,184.061 L963.085,184.061 C963.718,184.061 964.231,184.574 964.231,185.207 L964.231,188.644 C964.231,189.276 963.718,189.79 963.085,189.79 L959.648,189.79 C959.016,189.79 958.503,189.276 958.503,188.644 L958.503,185.207 L958.503,185.207 Z M950.525,190.818 C954.419,190.818 957.576,193.968 957.576,197.852 C957.576,201.737 954.419,204.887 950.525,204.887 C946.632,204.887 943.475,201.737 943.475,197.852 C943.475,193.968 946.632,190.818 950.525,190.818 L950.525,190.818 Z M965.377,211.558 C965.377,212.191 964.864,212.704 964.231,212.704 L936.734,212.704 C936.101,212.704 935.588,212.191 935.588,211.558 L935.588,194.373 L940.171,194.373 C939.574,195.232 939.372,196.835 939.372,197.852 C939.372,203.987 944.376,208.979 950.525,208.979 C956.675,208.979 961.679,203.987 961.679,197.852 C961.679,196.835 961.534,195.256 960.794,194.373 L965.377,194.373 L965.377,211.558 L965.377,211.558 Z" id="Instagram"></path>
            </g>
        </g>
    </g>
</svg>