<?xml version="1.0" encoding="UTF-8" standalone="no"?>
<svg width="38px" height="32px" viewBox="0 0 38 32" version="1.1" xmlns="http://www.w3.org/2000/svg" xmlns:xlink="http://www.w3.org/1999/xlink">
    <!-- Generator: Sketch 3.7.2 (28276) - http://www.bohemiancoding.com/sketch -->
    <title>Twitter</title>
    <desc>Created with Sketch.</desc>
    <defs></defs>
    <g id="Page-1" stroke="none" stroke-width="1" fill="none" fill-rule="evenodd">
        <g id="SOCIAL-ICONS-SKETCH" transform="translate(-803.000000, -750.000000)" fill="#FFFFFF">
            <g id="SINGLE-WHITE" transform="translate(0.000000, 568.000000)">
                <path d="M839.76,182.669 C838.274,183.57 836.632,184.226 834.877,184.578 C833.479,183.047 831.481,182.091 829.269,182.091 C825.029,182.091 821.588,185.619 821.588,189.97 C821.588,190.588 821.654,191.188 821.786,191.765 C815.4,191.436 809.739,188.302 805.947,183.53 C805.285,184.698 804.907,186.052 804.907,187.495 C804.907,190.227 806.263,192.64 808.326,194.053 C807.068,194.015 805.881,193.656 804.843,193.07 L804.843,193.167 C804.843,196.986 807.492,200.171 811.01,200.893 C810.366,201.077 809.686,201.17 808.985,201.17 C808.49,201.17 808.007,201.123 807.539,201.03 C808.517,204.159 811.353,206.438 814.716,206.499 C812.087,208.614 808.772,209.874 805.173,209.874 C804.553,209.874 803.94,209.838 803.34,209.766 C806.74,211.998 810.781,213.303 815.119,213.303 C829.254,213.303 836.981,201.298 836.981,190.886 C836.981,190.543 836.975,190.2 836.962,189.864 C838.463,188.753 839.767,187.366 840.793,185.786 C839.417,186.413 837.935,186.837 836.381,187.026 C837.968,186.052 839.186,184.508 839.76,182.669" id="Twitter"></path>
            </g>
        </g>
    </g>
</svg>