<?xml version="1.0" encoding="UTF-8" standalone="no"?>
<svg width="38px" height="38px" viewBox="0 0 38 38" version="1.1" xmlns="http://www.w3.org/2000/svg" xmlns:xlink="http://www.w3.org/1999/xlink">
    <!-- Generator: Sketch 3.7.2 (28276) - http://www.bohemiancoding.com/sketch -->
    <title>Facebook</title>
    <desc>Created with Sketch.</desc>
    <defs></defs>
    <g id="Page-1" stroke="none" stroke-width="1" fill="none" fill-rule="evenodd">
        <g id="SOCIAL-ICONS-SKETCH" transform="translate(-289.000000, -747.000000)" fill="#2e2e2e">
            <g id="SINGLE-WHITE" transform="translate(0.000000, 568.000000)">
                <path d="M326.145,214.646 C326.145,215.765 325.238,216.672 324.119,216.672 L314.764,216.672 L314.764,202.455 L319.536,202.455 L320.251,196.915 L314.764,196.915 L314.764,193.378 C314.764,191.774 315.21,190.68 317.51,190.68 L320.444,190.679 L320.444,185.724 C319.936,185.656 318.195,185.505 316.169,185.505 C311.939,185.505 309.043,188.087 309.043,192.829 L309.043,196.915 L304.259,196.915 L304.259,202.455 L309.043,202.455 L309.043,216.672 L291.46,216.672 C290.341,216.672 289.434,215.765 289.434,214.646 L289.434,181.987 C289.434,180.868 290.341,179.961 291.46,179.961 L324.119,179.961 C325.238,179.961 326.145,180.868 326.145,181.987 L326.145,214.646" id="Facebook"></path>
            </g>
        </g>
    </g>
</svg>